# xmcd
#
# Track frame offsets:
# 150
# 14721
# 27396
# 40629
# 57245
# 72615
# 84917
# 100193
# 112981
# 132607
# 145438
#
# Disc length: 2220 seconds
#
#
# Revision: 2
# Processed by: cddbd v1.5.1PL2 Copyright (c) Steve Scherf et al.
# Submitted via: FreeRIP 2.60 
#
DISCID=9c08aa0b
DTITLE=The Highwaymen - The Road Goes On Forever
DYEAR=1900
DGENRE=
TTITLE0=The Devil's Right Hand
TTITLE1=Live Forever
TTITLE2=Everyone Gets Crazy
TTITLE3=It Is What It Is
TTITLE4=I Do Believe
TTITLE5=The End of Understanding
TTITLE6=True Love Travels A Gravel Road
TTITLE7=Death and Hell
TTITLE8=Waiting For A Long Time
TTITLE9=Here Comes That Rainbow Again
TTITLE10=The Road Goes On Forever
EXTD=
EXTT0=
EXTT1=
EXTT2=
EXTT3=
EXTT4=
EXTT5=
EXTT6=
EXTT7=
EXTT8=
EXTT9=
EXTT10=
PLAYORDER=
